<svg xmlns="http://www.w3.org/2000/svg" viewBox="0 0 24 24"><defs><style>.cls-1{fill:none;}.cls-2{fill:#fff;}</style></defs><title>admin_hd</title><g id="レイヤー_2" data-name="レイヤー 2"><g id="アイコン"><rect class="cls-1" width="24" height="24"/><path class="cls-2" d="M23.94,13.46v-3l-3.71-1.4a7,7,0,0,0-.37-.89l1.63-3.61L19.38,2.46,15.77,4.09a9.17,9.17,0,0,0-.91-.38L13.48,0h-3L9.12,3.71a7.61,7.61,0,0,0-.93.39L4.6,2.46,2.49,4.57,4.13,8.16a7.61,7.61,0,0,0-.39.93L0,10.47v3l3.7,1.37a9.53,9.53,0,0,0,.38.93L2.48,19.35,4.6,21.47l3.59-1.64a9.17,9.17,0,0,0,.91.38l1.4,3.7h3l1.4-3.7c.31-.11.6-.23.9-.37l3.6,1.63,2.11-2.12-1.63-3.6a9,9,0,0,0,.38-.9Zm-12,2A3.54,3.54,0,1,1,15.52,12,3.54,3.54,0,0,1,12,15.5Z"/></g></g></svg>