<svg xmlns="http://www.w3.org/2000/svg" viewBox="0 0 24 24"><defs><style>.cls-1{fill:none;}.cls-2{fill:#fff;}.cls-3{fill:#0e74dd;}</style></defs><title>アセット 18</title><g id="レイヤー_2" data-name="レイヤー 2"><g id="レイヤー_1-2" data-name="レイヤー 1"><rect class="cls-1" width="24" height="24"/><circle class="cls-2" cx="11.9" cy="12.16" r="10.59"/><circle class="cls-2" cx="11.9" cy="12.16" r="10.59"/><path class="cls-3" d="M11.9,23.55A11.39,11.39,0,1,1,23.29,12.16,11.4,11.4,0,0,1,11.9,23.55Zm0-21.18a9.79,9.79,0,1,0,9.79,9.79A9.8,9.8,0,0,0,11.9,2.37Z"/><path class="cls-3" d="M17.33,7.74a2.54,2.54,0,0,0-1.68-1.56c-1-.4-2,0-2.89,1.25,0,0-3.38,5.17-3.58,5.53l0,.07c-.69,1.16-.63,2,.18,2.54a1.36,1.36,0,0,0,.74.23c.59,0,1.16-.41,1.72-1.23l3.34-5.16-.79-.5L11,14.06c-.46.67-.77.81-1,.81a.4.4,0,0,1-.22-.08c-.23-.14-.42-.37.12-1.28l0-.08c.13-.22,2-3.09,3.55-5.47.6-.86,1.16-1.14,1.78-.9a1.69,1.69,0,0,1,1.12,1,1.81,1.81,0,0,1-.28,1.35h0L11.79,16a2.87,2.87,0,0,1-1.94,1.28,2.17,2.17,0,0,1-1.72-.43,2.51,2.51,0,0,1-.49-3.06l4-6.06-.78-.52-4,6.07a3.47,3.47,0,0,0,.69,4.29,3,3,0,0,0,1.92.67h0a3.47,3.47,0,0,0,.53,0,3.81,3.81,0,0,0,2.57-1.69l4.36-6.67A2.68,2.68,0,0,0,17.33,7.74Z"/></g></g></svg>