<svg xmlns="http://www.w3.org/2000/svg" viewBox="0 0 24 24"><defs><style>.cls-1{fill:none;}.cls-2{fill:#fff;}</style></defs><title>bell_hd</title><g id="レイヤー_2" data-name="レイヤー 2"><g id="レイヤー_1-2" data-name="レイヤー 1"><rect class="cls-1" width="24" height="24"/><path class="cls-2" d="M13.43,5.34a.23.23,0,0,1-.23.25H10.76a.23.23,0,0,1-.23-.25L11,.25A.27.27,0,0,1,11.23,0h1.52A.27.27,0,0,1,13,.25Z"/><path class="cls-2" d="M19.94,11.32c0-2.62-1.34-9.1-7.92-9.1S4.1,8.7,4.1,11.32.5,18,.5,18h23S19.94,13.94,19.94,11.32Z"/><path class="cls-2" d="M12,24a3.48,3.48,0,0,0,3.52-3.42h-7A3.48,3.48,0,0,0,12,24Z"/></g></g></svg>