<?xml version="1.0" encoding="UTF-8" standalone="no"?>
<svg
   xmlns:dc="http://purl.org/dc/elements/1.1/"
   xmlns:cc="http://creativecommons.org/ns#"
   xmlns:rdf="http://www.w3.org/1999/02/22-rdf-syntax-ns#"
   xmlns:svg="http://www.w3.org/2000/svg"
   xmlns="http://www.w3.org/2000/svg"
   height="26"
   width="26"
   xml:space="preserve"
   viewBox="0 0 26 26"
   y="0px"
   x="0px"
   id="レイヤー_1"
   version="1.1"><metadata
     id="metadata17"><rdf:RDF><cc:Work
         rdf:about=""><dc:format>image/svg+xml</dc:format><dc:type
           rdf:resource="http://purl.org/dc/dcmitype/StillImage" /><dc:title></dc:title></cc:Work></rdf:RDF></metadata><defs
     id="defs15" /><style
     id="style3"
     type="text/css">
	.st0{display:none;}
	.st1{display:inline;fill:#FCCF00;}
	.st2{display:none;fill:#FFFFFF;}
	.st3{fill:#003685;}
</style><g
     transform="translate(0,4)"
     style="display:none"
     id="g5"
     class="st0"><path
       style="display:inline;fill:#fccf00"
       id="path7"
       d="M 32,7.1 C 29.8,5.8 27.6,5.4 25.2,5.9 c 0,-0.2 0,-0.3 0,-0.5 0,-2.5 -2,-4.5 -4.5,-4.5 -0.8,0 -1.6,0.2 -2.3,0.6 -1.1,-1 -2.6,-1.6 -4.2,-1.6 -2.8,0 -5.2,1.9 -6,4.4 C 7.6,4.2 6.9,4 6.1,4 2.9,4 0.3,6.7 0.3,9.9 c 0,2.4 1.5,4.5 3.6,5.4 0,3.7 3,6.7 6.7,6.7 1.8,0 3.5,-0.7 4.7,-1.9 0.7,0.4 1.4,0.6 2.3,0.6 1.8,0 3.4,-1.1 4.1,-2.6 2.7,-0.9 4.7,-3.4 4.7,-6.4 0,-0.8 -0.1,-1.6 -0.4,-2.3 1.6,-1.3 3.3,-1.9 6,-2.3"
       class="st1" /></g><path
     style="display:none;fill:#ffffff"
     id="path9"
     d="m 310.6,85.9 c 0,30.5 -24.7,55.2 -55.2,55.2 -30.5,0 -55.2,-24.7 -55.2,-55.2 0,-30.5 24.7,-55.2 55.2,-55.2 30.5,0 55.2,24.7 55.2,55.2 z"
     class="st2" /><path
     style="fill:#003685"
     id="path11"
     d="m 16.434343,13.945701 c -0.60606,0 -1.111111,-0.09955 -1.414141,-0.199095 0,0.199095 0.10101,0.696833 0.10101,1.19457 0,0.398191 -0.10101,0.796381 -0.10101,1.294118 0.909091,-0.199095 2.828283,-0.199095 4.444444,-0.199095 0.404041,0 0.404041,0.199095 0.404041,0.298643 0,0.09955 0,0.199095 0,0.298642 0,0.497738 0,1.095023 0,1.891403 0,0.696832 0,1.692308 0,2.986425 -0.404041,0.298643 -0.909091,0.497738 -1.414142,0.696833 -0.50505,0.199095 -1.010101,0.298642 -1.414141,0.39819 -0.40404,0.09955 -0.808081,0.09955 -1.212121,0.09955 -0.30303,0 -0.505051,0 -0.606061,0 C 14.111111,22.705882 13,22.506787 11.989899,22.108597 10.979798,21.710407 9.969697,21.113122 9.1616162,20.316742 8.3535354,19.520362 7.6464646,18.524887 7.2424242,17.230769 6.7373737,16.036199 6.5353535,14.542986 6.5353535,12.950226 c 0,-1.59276 0.2020202,-2.986425 0.7070707,-4.180995 C 7.7474747,7.5746606 8.3535354,6.5791855 9.0606061,5.7828054 9.8686869,4.9864253 10.676768,4.3891403 11.686869,3.9909502 c 1.010101,-0.39819 2.121212,-0.597285 3.232323,-0.597285 1.111111,0 2.121212,0.099547 2.828283,0.39819 0.808081,0.2986425 1.414141,0.5972851 1.919192,0.9954751 0.50505,0.3981901 0.909091,0.7963801 1.212121,1.1945702 0.30303,0.39819 0.60606,0.79638 0.707071,1.0950226 l 0.30303,0 c 0.10101,-0.2986426 0.20202,-0.6968326 0.30303,-1.1945702 C 22.292929,5.3846154 22.59596,4.6877828 22.89899,3.9909502 21.787879,3.3936652 20.575758,2.9954751 19.060606,2.6968326 17.747475,2.199095 16.333333,2 14.818182,2 12.79798,2 11.080808,2.2986425 9.5656566,2.8959276 8.0505051,3.4932127 6.8383838,4.2895928 5.8282828,5.2850679 4.8181818,6.280543 4.1111111,7.4751131 3.7070707,8.769231 3.2020202,10.063348 3,11.357466 3,12.850679 c 0,1.692307 0.3030303,3.18552 0.8080808,4.479638 0.6060606,1.393665 1.3131313,2.588235 2.3232323,3.58371 1.010101,0.995475 2.2222223,1.692308 3.6363637,2.289593 C 11.181818,23.701357 12.69697,24 14.414141,24 c 0.808081,0 1.616162,0 2.323233,-0.09955 0.70707,-0.09955 1.414141,-0.199095 2.121212,-0.39819 0.707071,-0.199095 1.313131,-0.298642 2.020202,-0.597285 C 21.484848,22.705882 23,23.004525 23,22.208145 c 0,-0.895928 0,-6.271493 0,-7.764706 0,-0.497738 -0.505051,-0.497738 -0.505051,-0.497738 l -0.30303,0 c -1.313131,0 -4.040404,0.09955 -5.757576,0 z"
     class="st3" /></svg>