<svg xmlns="http://www.w3.org/2000/svg" viewBox="0 0 20 20"><defs><style>.cls-1{fill:none;}.cls-2{fill:#fff;}</style></defs><title>information_1</title><g id="レイヤー_2" data-name="レイヤー 2"><g id="レイヤー_1-2" data-name="レイヤー 1"><rect class="cls-1" width="20" height="20"/><path class="cls-2" d="M10,1.09a9,9,0,1,0,9,9A9,9,0,0,0,10,1.09Zm0,2.57A1.67,1.67,0,1,1,8.37,5.33,1.67,1.67,0,0,1,10,3.66ZM12.8,15.84H7.61V14.63h.17a1.47,1.47,0,0,0,.94-.21,1.22,1.22,0,0,0,.17-.73V10.24a1.18,1.18,0,0,0-.17-.74,1.48,1.48,0,0,0-.94-.21H7.61V8.54L11.47,8v5.68a1.14,1.14,0,0,0,.18.75,2.35,2.35,0,0,0,1.15.2Z"/></g></g></svg>