<svg xmlns="http://www.w3.org/2000/svg" viewBox="0 0 111 25"><defs><style>.cls-1{fill:none;}.cls-2{fill:#fff;}</style></defs><title>logo_garoon</title><g id="レイヤー_2" data-name="レイヤー 2"><g id="オブジェクト"><rect class="cls-1" width="111" height="25"/><path class="cls-2" d="M48,12.06V10.41c.21-.15.5-.32.76-.51a5,5,0,0,1,.92-.51A7,7,0,0,1,50.89,9a6.34,6.34,0,0,1,1.45-.15,8.36,8.36,0,0,1,1.74.21,3.89,3.89,0,0,1,1.77.93,3.83,3.83,0,0,1,.76,1.06,3.78,3.78,0,0,1,.31,1.79c0,2-.1,3.47-.1,4.58,0,.56,0,1,0,1.41a4.2,4.2,0,0,0,.11.92.91.91,0,0,0,.29.49.83.83,0,0,0,.56.15,3.27,3.27,0,0,0,.91-.12V21a7,7,0,0,1-2.12.56,2.33,2.33,0,0,1-1.21-.4,2,2,0,0,1-.78-1.25c-.21.2-.43.41-.68.62a4.41,4.41,0,0,1-.84.57,5,5,0,0,1-1.07.42,5.16,5.16,0,0,1-1.36.17,3.94,3.94,0,0,1-1.71-.34,3.51,3.51,0,0,1-1.11-.83,3.08,3.08,0,0,1-.61-1.1A3.51,3.51,0,0,1,47,18.29a3.16,3.16,0,0,1,.38-1.64,3.24,3.24,0,0,1,1-1A4.76,4.76,0,0,1,49.8,15c.52-.14,1.05-.27,1.57-.38l2.28-.49a1.27,1.27,0,0,0,.76-.4,1.36,1.36,0,0,0,.21-.82,2.59,2.59,0,0,0-.83-2,3,3,0,0,0-2.1-.74C50.2,10.18,48,12.06,48,12.06Zm6,3a15.85,15.85,0,0,0-2.16.48,5.72,5.72,0,0,0-1.5.7,1.72,1.72,0,0,0-.67.84,3.12,3.12,0,0,0-.15,1,2.15,2.15,0,0,0,.23,1,1.8,1.8,0,0,0,.55.66,1.84,1.84,0,0,0,.72.34,2.81,2.81,0,0,0,.73.11,3,3,0,0,0,1-.18,3,3,0,0,0,.89-.51,3.08,3.08,0,0,0,.64-.76,2,2,0,0,0,.25-1V15.49A.42.42,0,0,0,54,15.1Z"/><path class="cls-2" d="M67.59,11.31a3.44,3.44,0,0,0-2.38-.11,2.64,2.64,0,0,0-.73.38,2.18,2.18,0,0,0-.48.48c-.13.17-.22.32-.29.43s-.15.41-.21.6a4.09,4.09,0,0,0-.13.76c0,.32,0,.72,0,1.21s0,1.13,0,1.91v.72q0,.52,0,.93c0,.44,0,.8,0,1.07s0,.5,0,.68,0,.33,0,.48,0,.32,0,.52a3.47,3.47,0,0,0-.56-.11,5.45,5.45,0,0,0-.79,0,4.61,4.61,0,0,0-.71,0,3.58,3.58,0,0,0-.53.11q.08-.61.12-1.14T61.08,19c0-.45,0-1,.05-1.65s0-1.46,0-2.47c0-.71,0-1.34,0-1.89s0-1.06-.05-1.51,0-.89-.07-1.3,0-.81-.07-1.22a3.69,3.69,0,0,0,.56.11,4.87,4.87,0,0,0,.71,0,4.47,4.47,0,0,0,.7,0A4.51,4.51,0,0,0,63.49,9c-.1.71-.16,1.31-.18,1.79s0,.85,0,1.08a6.75,6.75,0,0,1,.47-.93,5,5,0,0,1,.85-1,4,4,0,0,1,1.31-.78,6.6,6.6,0,0,1,2.31-.22c.15,0,.11.08.09.12a5.39,5.39,0,0,0-.5,1,3.26,3.26,0,0,0-.07,1.17C67.76,11.3,67.73,11.36,67.59,11.31Z"/><path class="cls-2" d="M75.48,8.86a7.53,7.53,0,0,1,3,.54,5.81,5.81,0,0,1,2,1.44,5.3,5.3,0,0,1,1.14,2A7.76,7.76,0,0,1,82,15.14a7.11,7.11,0,0,1-.49,2.73,5.87,5.87,0,0,1-3.43,3.4,7.34,7.34,0,0,1-2.61.46,8.91,8.91,0,0,1-2.11-.27,5.38,5.38,0,0,1-2-1,5.55,5.55,0,0,1-1.56-2,7.12,7.12,0,0,1-.62-3.21,7.34,7.34,0,0,1,.46-2.67,5.56,5.56,0,0,1,3.3-3.32A7.34,7.34,0,0,1,75.48,8.86Zm.15,1a3.62,3.62,0,0,0-1.67.35,3.47,3.47,0,0,0-1.11.87,4.31,4.31,0,0,0-.68,1.17,8,8,0,0,0-.34,1.24,6.46,6.46,0,0,0-.13,1.07c0,.31,0,.53,0,.65a6.75,6.75,0,0,0,1,4.08,3.27,3.27,0,0,0,2.76,1.41,3.42,3.42,0,0,0,2.88-1.48,5.41,5.41,0,0,0,.8-1.71,8.36,8.36,0,0,0,.29-2.28,10.63,10.63,0,0,0-.15-1.67,6,6,0,0,0-.57-1.75,4,4,0,0,0-1.15-1.39A3.24,3.24,0,0,0,75.63,9.87Z"/><path class="cls-2" d="M90.13,8.86a7.53,7.53,0,0,1,3,.54,6,6,0,0,1,2,1.44,5.41,5.41,0,0,1,1.13,2,7.76,7.76,0,0,1,.35,2.29,7.11,7.11,0,0,1-.49,2.73A5.92,5.92,0,0,1,94.81,20a6,6,0,0,1-2.07,1.32,7.34,7.34,0,0,1-2.61.46A8.91,8.91,0,0,1,88,21.46a5.38,5.38,0,0,1-2-1,5.55,5.55,0,0,1-1.56-2,7.12,7.12,0,0,1-.62-3.21,7.34,7.34,0,0,1,.46-2.67,5.56,5.56,0,0,1,3.3-3.32A7.34,7.34,0,0,1,90.13,8.86Zm.15,1a3.62,3.62,0,0,0-1.67.35,3.47,3.47,0,0,0-1.11.87,4.31,4.31,0,0,0-.68,1.17,8,8,0,0,0-.34,1.24,6.46,6.46,0,0,0-.13,1.07c0,.31,0,.53,0,.65a6.75,6.75,0,0,0,1,4.08,3.27,3.27,0,0,0,2.76,1.41A3.39,3.39,0,0,0,93,19.23a5.41,5.41,0,0,0,.8-1.71,8.36,8.36,0,0,0,.29-2.28A10.63,10.63,0,0,0,94,13.57a6,6,0,0,0-.57-1.75,4,4,0,0,0-1.15-1.39A3.24,3.24,0,0,0,90.28,9.87Z"/><path class="cls-2" d="M99.36,14.38c0-.85,0-1.74,0-2.67s0-1.85-.09-2.75l.63.1a3.87,3.87,0,0,0,1.24,0l.6-.1c0,.1,0,.27,0,.49s0,.47,0,.73,0,.5,0,.72,0,.39,0,.47a5.38,5.38,0,0,1,.62-.9,4.52,4.52,0,0,1,.92-.8,4.77,4.77,0,0,1,1.25-.57A5.14,5.14,0,0,1,106,8.88a4.91,4.91,0,0,1,2.4.49,3.2,3.2,0,0,1,1.28,1.18,3.92,3.92,0,0,1,.51,1.46,9.66,9.66,0,0,1,.1,1.3s0,.19,0,.43,0,.53,0,.89,0,.74,0,1.16,0,.82,0,1.21,0,.74,0,1.05,0,.54,0,.68v.55c0,.26,0,.53,0,.81s0,.53,0,.77a4,4,0,0,0,0,.51,4,4,0,0,0-.54-.11,4.71,4.71,0,0,0-.74,0,5.15,5.15,0,0,0-.77,0,3.82,3.82,0,0,0-.55.11c.05-.68.09-1.35.13-2s.06-1.28.07-1.82,0-1,0-1.39v-.75c0-.62,0-1.24-.06-1.84a5.31,5.31,0,0,0-.35-1.59,2.65,2.65,0,0,0-.86-1.11,2.74,2.74,0,0,0-1.62-.42,3.11,3.11,0,0,0-3,1.76,3,3,0,0,0-.26,1c-.06.43-.1.89-.13,1.38s0,1,0,1.44,0,.85,0,1.16c0,1,0,1.83.08,2.5s.09,1.25.12,1.72l-.59-.1a3.92,3.92,0,0,0-.73-.05,4.1,4.1,0,0,0-.74.05l-.58.1c0-.39.06-.79.09-1.21s0-.89.07-1.43,0-1.17.06-1.87S99.36,15.33,99.36,14.38Z"/><path class="cls-2" d="M39.19,13.45A4.93,4.93,0,0,1,38,13.26c0,.18.08.56.09,1a8.36,8.36,0,0,1-.1,1,26.44,26.44,0,0,1,3.64-.17c.32,0,.33.18.33.27a1.92,1.92,0,0,1,0,.24c0,.41,0,3,0,4a5,5,0,0,1-1.16.56,7.28,7.28,0,0,1-1.16.29,6.15,6.15,0,0,1-1,.1l-.52,0a7.15,7.15,0,0,1-2.66-.51,6.75,6.75,0,0,1-2.28-1.52A7.39,7.39,0,0,1,31.67,16a9.56,9.56,0,0,1-.6-3.53,9.65,9.65,0,0,1,.56-3.44,7,7,0,0,1,1.51-2.44,6.14,6.14,0,0,1,2.18-1.47A7.76,7.76,0,0,1,40.25,5a6,6,0,0,1,1.6.8,5.36,5.36,0,0,1,1,1c.26.35.46.64.61.88h.28c.05-.24.13-.58.25-1a8.43,8.43,0,0,1,.59-1.56A12.66,12.66,0,0,0,41.46,4a16.46,16.46,0,0,0-3.59-.4,11.59,11.59,0,0,0-4.28.72,8.49,8.49,0,0,0-3,2A7.73,7.73,0,0,0,28.8,9.11a10.33,10.33,0,0,0-.57,3.43,9.92,9.92,0,0,0,.67,3.74A8.31,8.31,0,0,0,33.76,21a10.51,10.51,0,0,0,3.79.66,16.45,16.45,0,0,0,1.93-.1c.59-.07,1.16-.17,1.71-.29s1.09-.28,1.62-.46,1.7,0,1.7-.57V13.85a.44.44,0,0,0-.4-.42h-.25C42.83,13.4,40.55,13.5,39.19,13.45Z"/><path class="cls-2" d="M21.36,12.52A10.45,10.45,0,1,1,10.91,2.07,10.45,10.45,0,0,1,21.36,12.52Z"/><path d="M12.19,13.12a3.11,3.11,0,0,1-.71-.11c0,.11,0,.34,0,.6a4.21,4.21,0,0,1,0,.62,15.24,15.24,0,0,1,2.21-.1c.19,0,.2.11.2.16v.15c0,.25,0,1.69,0,2.42a3.09,3.09,0,0,1-.71.34,5.57,5.57,0,0,1-.7.18l-.58.06h-.32A4.47,4.47,0,0,1,10,17.14a4.27,4.27,0,0,1-1.39-.92,4.5,4.5,0,0,1-1-1.54,5.81,5.81,0,0,1-.36-2.14,5.76,5.76,0,0,1,.34-2.09A4.28,4.28,0,0,1,8.51,9a3.67,3.67,0,0,1,1.32-.89,4.44,4.44,0,0,1,1.59-.29,4.2,4.2,0,0,1,1.41.2,3.14,3.14,0,0,1,1,.49,3,3,0,0,1,.63.6c.15.21.28.39.37.53H15c0-.14.08-.35.15-.62a6.29,6.29,0,0,1,.37-1,8,8,0,0,0-1.91-.67,9.73,9.73,0,0,0-2.18-.25,7.13,7.13,0,0,0-2.61.44A5.32,5.32,0,0,0,6.94,8.74a4.78,4.78,0,0,0-1.07,1.75,6,6,0,0,0-.35,2.08,5.94,5.94,0,0,0,.41,2.28A5,5,0,0,0,7.09,16.6a5.27,5.27,0,0,0,1.79,1.14,6.37,6.37,0,0,0,2.31.4,10.63,10.63,0,0,0,1.17-.06,8.35,8.35,0,0,0,1-.18c.34-.08.66-.17,1-.28s1,0,1-.34V13.37a.27.27,0,0,0-.24-.26H15C14.4,13.1,13,13.15,12.19,13.12Z"/></g></g></svg>