<svg xmlns="http://www.w3.org/2000/svg" viewBox="0 0 122 25"><defs><style>.cls-1{fill:none;}.cls-2{fill:#fff;}</style></defs><title>アセット 26</title><g id="レイヤー_2" data-name="レイヤー 2"><g id="レイヤー_1-2" data-name="レイヤー 1"><rect class="cls-1" width="122" height="25"/><path class="cls-2" d="M73.63,5.66A.64.64,0,0,0,73,5H71a.64.64,0,0,0-.65.65v7.67c0,2.75-2.1,2.66-2.18,2.66S66,16.08,66,13.33V5.66A.64.64,0,0,0,65.31,5h-2a.64.64,0,0,0-.65.65v7.75A5.47,5.47,0,0,0,64.5,18.1a5.35,5.35,0,0,0,3.63,1.21,5.49,5.49,0,0,0,3.63-1.21c1.37-1.13,1.86-2.5,1.86-4.6Z"/><path class="cls-2" d="M48.68,6A6,6,0,0,0,44.8,4.77,6,6,0,0,0,40.92,6c-1.53,1.13-2,2.5-2,4.68v2.83c0,2.18.48,3.47,2,4.68a6.15,6.15,0,0,0,3.88,1.21,6,6,0,0,0,3.88-1.21c1.53-1.13,2-2.5,2-4.68V10.67C50.69,8.49,50.21,7.11,48.68,6Zm-1.29,7.35a2.59,2.59,0,1,1-5.17,0V10.67a2.59,2.59,0,1,1,5.17,0Z"/><path class="cls-2" d="M101.08,6a6.15,6.15,0,0,0-3.88-1.21A6,6,0,0,0,93.33,6c-1.53,1.13-2,2.5-2,4.68v2.83c0,2.18.48,3.47,2,4.68a6.15,6.15,0,0,0,3.88,1.21,6,6,0,0,0,3.88-1.21c1.53-1.13,2-2.5,2-4.68V10.67A5.27,5.27,0,0,0,101.08,6Zm-1.29,7.35a2.59,2.59,0,1,1-5.17,0V10.67a2.59,2.59,0,1,1,5.17,0Z"/><path class="cls-2" d="M35.11,5.82a4.8,4.8,0,0,0-3.31-1,4.45,4.45,0,0,0-3.15.89V.9A.64.64,0,0,0,28,.25H26a.64.64,0,0,0-.65.65V13.41c0,2.18.48,3.47,2,4.68a6.15,6.15,0,0,0,3.88,1.21,6,6,0,0,0,3.88-1.21c1.53-1.13,2-2.5,2-4.68V10.59A5.4,5.4,0,0,0,35.11,5.82Zm-1.29,7.51a2.59,2.59,0,1,1-5.17,0v-3C28.65,8,31.15,8,31.23,8a2.46,2.46,0,0,1,2.58,2.66Z"/><path class="cls-2" d="M121.35,10.59c0-2.18-.32-3.55-1.61-4.68a4.49,4.49,0,0,0-3.31-1.13,4.63,4.63,0,0,0-3.23,1.29,4.68,4.68,0,0,0-3.31-1.29,4.82,4.82,0,0,0-3.47,1C105.2,7,105,8.49,105,10.67v7.75a.64.64,0,0,0,.65.65h1.86a.64.64,0,0,0,.65-.65V10.34c0-2.26,1.37-2.26,1.78-2.26s1.61.16,1.61,2.1v8.24a.64.64,0,0,0,.65.65H114a.64.64,0,0,0,.65-.65V10.34c0-2.26,1.37-2.26,1.78-2.26s1.62,0,1.62,2.1v8.24a.64.64,0,0,0,.65.65h1.86a.64.64,0,0,0,.65-.65V10.59Z"/><path class="cls-2" d="M9.83,6.06A6.44,6.44,0,0,0,6.12,4.77,6.15,6.15,0,0,0,2.24,6c-1.53,1.13-2,2.5-2,4.6v2.83c0,2.18.48,3.47,2,4.68a6.15,6.15,0,0,0,3.88,1.21,5.36,5.36,0,0,0,4.12-1.53A5.23,5.23,0,0,0,11,16.56c0-.08.16-.32.08-.48a.29.29,0,0,0-.24-.16l-2-.73a.39.39,0,0,0-.32,0,.63.63,0,0,0-.32.32,2.27,2.27,0,0,1-2.1.89,2.52,2.52,0,0,1-2.58-2.66v-3A2.52,2.52,0,0,1,6.12,7.92c1.78,0,1.94.73,2.26,1.37.08.24.4.24.4.24h2.34a.29.29,0,0,0,.24-.16.93.93,0,0,0,0-.48A3.92,3.92,0,0,0,9.83,6.06Z"/><path class="cls-2" d="M88.48,6.06a6.44,6.44,0,0,0-3.71-1.29A6,6,0,0,0,80.89,6c-1.53,1.13-2,2.5-2,4.68v2.83c0,2.18.48,3.47,2,4.68a6.15,6.15,0,0,0,3.88,1.21,5.36,5.36,0,0,0,4.12-1.53,5.23,5.23,0,0,0,.81-1.21c0-.08.16-.32.08-.48a.29.29,0,0,0-.24-.16l-2-.73a.39.39,0,0,0-.32,0,.63.63,0,0,0-.32.32,2.37,2.37,0,0,1-2.18,1,2.52,2.52,0,0,1-2.58-2.66v-3a2.49,2.49,0,0,1,2.58-2.83c1.78,0,1.94.73,2.26,1.37.08.24.4.24.4.24H89.7a.29.29,0,0,0,.24-.16.93.93,0,0,0,0-.48A3.69,3.69,0,0,0,88.48,6.06Z"/><path class="cls-2" d="M60.3,15.75h-4c-.32,0-.24-.24-.16-.4s2.91-4.6,4.12-6.54c.81-1.29.89-2,.4-2.83-.65-1-2-1-3.07-1H52.79a.69.69,0,0,0-.65.65V7.6a.64.64,0,0,0,.65.65h4s-.48.65-1.13,1.53c-1,1.53-2.5,3.88-3.31,5.09A2.68,2.68,0,0,0,52.23,18c.73.89,1.86.89,3.31.89h4.68a.69.69,0,0,0,.65-.65V16.4A.62.62,0,0,0,60.3,15.75Z"/><ellipse class="cls-2" cx="76.29" cy="17.37" rx="1.86" ry="1.94"/><path class="cls-2" d="M23.4,5H20.9a.62.62,0,0,0-.65.57S19,9.86,18.64,10.91,17.83,14,17.83,14s-.32-1.62-.73-3.07-1.7-5.33-1.7-5.33c-.08-.32-.24-.57-.57-.57h-2.5c-.4,0-.57.24-.48.57l4.36,13.57h0l-1.53,5a.48.48,0,0,0,.48.57h2.58c.32,0,.48-.24.57-.57L24,5.74C24,5.18,23.72,5,23.4,5Z"/></g></g></svg>