<svg xmlns="http://www.w3.org/2000/svg" viewBox="0 0 103 25"><defs><style>.cls-1{fill:none;}.cls-2{fill:#fff;}</style></defs><title>アセット 27</title><g id="レイヤー_2" data-name="レイヤー 2"><g id="レイヤー_1-2" data-name="レイヤー 1"><rect class="cls-1" width="103" height="25"/><path class="cls-2" d="M73.63,5.7A.64.64,0,0,0,73,5.05H71a.64.64,0,0,0-.65.65v7.67c0,2.75-2.1,2.66-2.18,2.66S66,16.12,66,13.37V5.7a.64.64,0,0,0-.65-.65h-2a.64.64,0,0,0-.65.65v7.75a5.47,5.47,0,0,0,1.86,4.68,5.35,5.35,0,0,0,3.63,1.21,5.49,5.49,0,0,0,3.63-1.21c1.37-1.13,1.86-2.5,1.86-4.6Z"/><path class="cls-2" d="M48.68,6A6,6,0,0,0,44.8,4.81,6,6,0,0,0,40.92,6c-1.53,1.13-2,2.5-2,4.68v2.83c0,2.18.48,3.47,2,4.68a6.15,6.15,0,0,0,3.88,1.21,6,6,0,0,0,3.88-1.21c1.53-1.13,2-2.5,2-4.68V10.71C50.69,8.53,50.21,7.15,48.68,6Zm-1.29,7.35a2.59,2.59,0,1,1-5.17,0V10.71a2.59,2.59,0,1,1,5.17,0Z"/><path class="cls-2" d="M35.11,5.86a4.8,4.8,0,0,0-3.31-1,4.45,4.45,0,0,0-3.15.89V.94A.64.64,0,0,0,28,.29H26a.64.64,0,0,0-.65.65V13.45c0,2.18.48,3.47,2,4.68a6.15,6.15,0,0,0,3.88,1.21,6,6,0,0,0,3.88-1.21c1.53-1.13,2-2.5,2-4.68V10.63A5.4,5.4,0,0,0,35.11,5.86Zm-1.29,7.51a2.59,2.59,0,1,1-5.17,0v-3C28.65,8,31.15,8,31.23,8a2.46,2.46,0,0,1,2.58,2.66Z"/><path class="cls-2" d="M9.83,6.1A6.44,6.44,0,0,0,6.12,4.81,6.15,6.15,0,0,0,2.24,6c-1.53,1.13-2,2.5-2,4.6v2.83c0,2.18.48,3.47,2,4.68a6.15,6.15,0,0,0,3.88,1.21,5.36,5.36,0,0,0,4.12-1.53A5.23,5.23,0,0,0,11,16.6c0-.08.16-.32.08-.48a.29.29,0,0,0-.24-.16l-2-.73a.39.39,0,0,0-.32,0,.63.63,0,0,0-.32.32,2.27,2.27,0,0,1-2.1.89,2.52,2.52,0,0,1-2.58-2.66v-3A2.52,2.52,0,0,1,6.12,8c1.78,0,1.94.73,2.26,1.37.08.24.4.24.4.24h2.34a.29.29,0,0,0,.24-.16.93.93,0,0,0,0-.48A3.92,3.92,0,0,0,9.83,6.1Z"/><path class="cls-2" d="M88.48,6.1a6.44,6.44,0,0,0-3.71-1.29A6,6,0,0,0,80.89,6c-1.53,1.13-2,2.5-2,4.68v2.83c0,2.18.48,3.47,2,4.68a6.15,6.15,0,0,0,3.88,1.21,5.36,5.36,0,0,0,4.12-1.53,5.23,5.23,0,0,0,.81-1.21c0-.08.16-.32.08-.48a.29.29,0,0,0-.24-.16l-2-.73a.39.39,0,0,0-.32,0,.63.63,0,0,0-.32.32,2.37,2.37,0,0,1-2.18,1,2.52,2.52,0,0,1-2.58-2.66v-3a2.49,2.49,0,0,1,2.58-2.83c1.78,0,1.94.73,2.26,1.37.08.24.4.24.4.24H89.7a.29.29,0,0,0,.24-.16.93.93,0,0,0,0-.48A3.69,3.69,0,0,0,88.48,6.1Z"/><path class="cls-2" d="M60.3,15.79h-4c-.32,0-.24-.24-.16-.4s2.91-4.6,4.12-6.54c.81-1.29.89-2,.4-2.83-.65-1-2-1-3.07-1H52.79a.69.69,0,0,0-.65.65V7.64a.64.64,0,0,0,.65.65h4s-.48.65-1.13,1.53c-1,1.53-2.5,3.88-3.31,5.09a2.68,2.68,0,0,0-.16,3.15c.73.89,1.86.89,3.31.89h4.68a.69.69,0,0,0,.65-.65V16.44A.62.62,0,0,0,60.3,15.79Z"/><ellipse class="cls-2" cx="76.29" cy="17.41" rx="1.86" ry="1.94"/><path class="cls-2" d="M23.4,5.05H20.9a.62.62,0,0,0-.65.57S19,9.9,18.64,10.95,17.83,14,17.83,14s-.32-1.62-.73-3.07-1.7-5.33-1.7-5.33c-.08-.32-.24-.57-.57-.57h-2.5c-.4,0-.57.24-.48.57l4.36,13.57h0l-1.53,5a.48.48,0,0,0,.48.57h2.58c.32,0,.48-.24.57-.57L24,5.78C24,5.22,23.72,5.05,23.4,5.05Z"/><path class="cls-2" d="M91.23,18.38a.64.64,0,0,0,.65.65H94a.64.64,0,0,0,.65-.65V10.71C94.62,8,96.72,8,96.8,8s2.26-.08,2.26,2.66v7.67a.64.64,0,0,0,.65.65h2.1a.64.64,0,0,0,.65-.65V10.63c0-2.18-.48-3.47-1.94-4.68a6.3,6.3,0,0,0-7.43,0c-1.45,1.13-1.94,2.5-1.94,4.6Z"/></g></g></svg>