<?xml version="1.0" encoding="utf-8"?>
<!-- Generator: Adobe Illustrator 21.1.0, SVG Export Plug-In . SVG Version: 6.00 Build 0)  -->
<svg version="1.1"
	 id="レイヤー_1" xmlns:cc="http://creativecommons.org/ns#" xmlns:dc="http://purl.org/dc/elements/1.1/" xmlns:rdf="http://www.w3.org/1999/02/22-rdf-syntax-ns#" xmlns:svg="http://www.w3.org/2000/svg"
	 xmlns="http://www.w3.org/2000/svg" xmlns:xlink="http://www.w3.org/1999/xlink" x="0px" y="0px" viewBox="0 0 26 26"
	 style="enable-background:new 0 0 26 26;" xml:space="preserve">
<style type="text/css">
	.st0{display:none;}
	.st1{display:inline;fill:#FCCF00;}
	.st2{display:none;fill:#FFFFFF;}
	.st3{display:none;fill:#003685;}
	.st4{display:none;fill:#1992D4;}
	.st5{fill:#DD2F4D;}
</style>
<g id="g5" transform="translate(0,4)" class="st0">
	<path id="path7" class="st1" d="M32,7.1c-2.2-1.3-4.4-1.7-6.8-1.2c0-0.2,0-0.3,0-0.5c0-2.5-2-4.5-4.5-4.5c-0.8,0-1.6,0.2-2.3,0.6
		c-1.1-1-2.6-1.6-4.2-1.6c-2.8,0-5.2,1.9-6,4.4C7.6,4.2,6.9,4,6.1,4C2.9,4,0.3,6.7,0.3,9.9c0,2.4,1.5,4.5,3.6,5.4
		c0,3.7,3,6.7,6.7,6.7c1.8,0,3.5-0.7,4.7-1.9c0.7,0.4,1.4,0.6,2.3,0.6c1.8,0,3.4-1.1,4.1-2.6c2.7-0.9,4.7-3.4,4.7-6.4
		c0-0.8-0.1-1.6-0.4-2.3C27.6,8.1,29.3,7.5,32,7.1"/>
</g>
<path id="path9" class="st2" d="M310.6,85.9c0,30.5-24.7,55.2-55.2,55.2s-55.2-24.7-55.2-55.2s24.7-55.2,55.2-55.2
	S310.6,55.4,310.6,85.9z"/>
<path id="path11" class="st3" d="M13.3,16c-0.6,0-1.1-0.1-1.4-0.2c0,0.2,0.1,0.7,0.1,1.2c0,0.4-0.1,0.8-0.1,1.3
	c0.9-0.2,2.8-0.2,4.4-0.2c0.4,0,0.4,0.2,0.4,0.3c0,0.1,0,0.2,0,0.3c0,0.5,0,1.1,0,1.9c0,0.7,0,1.7,0,3c-0.4,0.3-0.9,0.5-1.4,0.7
	s-1,0.3-1.4,0.4s-0.8,0.1-1.2,0.1c-0.3,0-0.5,0-0.6,0c-1.1,0-2.2-0.2-3.2-0.6s-2-1-2.8-1.8c-0.8-0.8-1.5-1.8-1.9-3.1
	c-0.5-1.2-0.7-2.7-0.7-4.3s0.2-3,0.7-4.2s1.1-2.2,1.8-3C6.8,7,7.6,6.4,8.6,6s2.1-0.6,3.2-0.6s2.1,0.1,2.8,0.4c0.8,0.3,1.4,0.6,1.9,1
	s0.9,0.8,1.2,1.2c0.3,0.4,0.6,0.8,0.7,1.1h0.3c0.1-0.3,0.2-0.7,0.3-1.2s0.4-1.2,0.7-1.9c-1.1-0.6-2.3-1-3.8-1.3
	C14.6,4.2,13.2,4,11.7,4C9.7,4,8,4.3,6.5,4.9S3.8,6.3,2.8,7.3s-1.7,2.2-2.1,3.5C0.2,12.1,0,13.4,0,14.9c0,1.7,0.3,3.2,0.8,4.5
	C1.4,20.8,2.1,22,3.1,23s2.2,1.7,3.6,2.3c1.4,0.5,2.9,0.8,4.6,0.8c0.8,0,1.6,0,2.3-0.1s1.4-0.2,2.1-0.4c0.7-0.2,1.3-0.3,2-0.6
	c0.6-0.2,2.1,0.1,2.1-0.7c0-0.9,0-6.3,0-7.8c0-0.5-0.5-0.5-0.5-0.5H19C17.7,16,15,16.1,13.3,16z"/>
<path id="path13" class="st4" d="M11,8.6c3.5,0,6.4,2.9,6.4,6.4s-2.9,6.4-6.4,6.4S4.6,18.5,4.6,15S7.5,8.6,11,8.6 M11,4
	C4.9,4,0,8.9,0,15s4.9,11,11,11s11-4.9,11-11S17.1,4,11,4L11,4z"/>
<g id="g15" transform="translate(2,2)">
	<g id="g17">
		<path id="path19" class="st5" d="M11,15.1c-2.3-2.4-11-11-11-11v16.2h22V4.1C22,4.1,13.5,12.6,11,15.1z M21.6,2H0.2L11,12.6
			L21.6,2z"/>
	</g>
</g>
</svg>
