<?xml version="1.0" encoding="UTF-8" standalone="no"?>
<svg
   xmlns:dc="http://purl.org/dc/elements/1.1/"
   xmlns:cc="http://creativecommons.org/ns#"
   xmlns:rdf="http://www.w3.org/1999/02/22-rdf-syntax-ns#"
   xmlns:svg="http://www.w3.org/2000/svg"
   xmlns="http://www.w3.org/2000/svg"
   height="26"
   width="26"
   xml:space="preserve"
   viewBox="0 0 26 26"
   y="0px"
   x="0px"
   id="レイヤー_1"
   version="1.1"><metadata
     id="metadata31"><rdf:RDF><cc:Work
         rdf:about=""><dc:format>image/svg+xml</dc:format><dc:type
           rdf:resource="http://purl.org/dc/dcmitype/StillImage" /><dc:title></dc:title></cc:Work></rdf:RDF></metadata><defs
     id="defs29" /><style
     id="style3"
     type="text/css">
	.st0{display:none;}
	.st1{display:inline;fill:#FCCF00;}
	.st2{display:none;fill:#FFFFFF;}
	.st3{display:none;fill:#003685;}
	.st4{display:none;fill:#1992D4;}
	.st5{display:inline;}
	.st6{fill-rule:evenodd;clip-rule:evenodd;fill:#DD2F4D;}
	.st7{fill-rule:evenodd;clip-rule:evenodd;fill:#1992D4;}
</style><g
     transform="translate(0,4)"
     style="display:none"
     id="g5"
     class="st0"><path
       style="display:inline;fill:#fccf00"
       id="path7"
       d="M 32,7.1 C 29.8,5.8 27.6,5.4 25.2,5.9 c 0,-0.2 0,-0.3 0,-0.5 0,-2.5 -2,-4.5 -4.5,-4.5 -0.8,0 -1.6,0.2 -2.3,0.6 -1.1,-1 -2.6,-1.6 -4.2,-1.6 -2.8,0 -5.2,1.9 -6,4.4 C 7.6,4.2 6.9,4 6.1,4 2.9,4 0.3,6.7 0.3,9.9 c 0,2.4 1.5,4.5 3.6,5.4 0,3.7 3,6.7 6.7,6.7 1.8,0 3.5,-0.7 4.7,-1.9 0.7,0.4 1.4,0.6 2.3,0.6 1.8,0 3.4,-1.1 4.1,-2.6 2.7,-0.9 4.7,-3.4 4.7,-6.4 0,-0.8 -0.1,-1.6 -0.4,-2.3 1.6,-1.3 3.3,-1.9 6,-2.3"
       class="st1" /></g><path
     style="display:none;fill:#ffffff"
     id="path9"
     d="m 310.6,85.9 c 0,30.5 -24.7,55.2 -55.2,55.2 -30.5,0 -55.2,-24.7 -55.2,-55.2 0,-30.5 24.7,-55.2 55.2,-55.2 30.5,0 55.2,24.7 55.2,55.2 z"
     class="st2" /><path
     style="display:none;fill:#003685"
     id="path11"
     d="m 13.3,16 c -0.6,0 -1.1,-0.1 -1.4,-0.2 0,0.2 0.1,0.7 0.1,1.2 0,0.4 -0.1,0.8 -0.1,1.3 0.9,-0.2 2.8,-0.2 4.4,-0.2 0.4,0 0.4,0.2 0.4,0.3 0,0.1 0,0.2 0,0.3 0,0.5 0,1.1 0,1.9 0,0.7 0,1.7 0,3 -0.4,0.3 -0.9,0.5 -1.4,0.7 -0.5,0.2 -1,0.3 -1.4,0.4 -0.4,0.1 -0.8,0.1 -1.2,0.1 -0.3,0 -0.5,0 -0.6,0 -1.1,0 -2.2,-0.2 -3.2,-0.6 -1,-0.4 -2,-1 -2.8,-1.8 C 5.3,21.6 4.6,20.6 4.2,19.3 3.7,18.1 3.5,16.6 3.5,15 3.5,13.4 3.7,12 4.2,10.8 4.7,9.6 5.3,8.6 6,7.8 6.8,7 7.6,6.4 8.6,6 c 1,-0.4 2.1,-0.6 3.2,-0.6 1.1,0 2.1,0.1 2.8,0.4 0.8,0.3 1.4,0.6 1.9,1 0.5,0.4 0.9,0.8 1.2,1.2 0.3,0.4 0.6,0.8 0.7,1.1 l 0.3,0 C 18.8,8.8 18.9,8.4 19,7.9 19.1,7.4 19.4,6.7 19.7,6 18.6,5.4 17.4,5 15.9,4.7 14.6,4.2 13.2,4 11.7,4 9.7,4 8,4.3 6.5,4.9 5,5.5 3.8,6.3 2.8,7.3 1.8,8.3 1.1,9.5 0.7,10.8 0.2,12.1 0,13.4 0,14.9 c 0,1.7 0.3,3.2 0.8,4.5 0.6,1.4 1.3,2.6 2.3,3.6 1,1 2.2,1.7 3.6,2.3 1.4,0.5 2.9,0.8 4.6,0.8 0.8,0 1.6,0 2.3,-0.1 0.7,-0.1 1.4,-0.2 2.1,-0.4 0.7,-0.2 1.3,-0.3 2,-0.6 0.6,-0.2 2.1,0.1 2.1,-0.7 0,-0.9 0,-6.3 0,-7.8 C 19.8,16 19.3,16 19.3,16 L 19,16 c -1.3,0 -4,0.1 -5.7,0 z"
     class="st3" /><path
     style="display:none;fill:#1992d4"
     id="path13"
     d="m 11,8.6 c 3.5,0 6.4,2.9 6.4,6.4 0,3.5 -2.9,6.4 -6.4,6.4 C 7.5,21.4 4.6,18.5 4.6,15 4.6,11.5 7.5,8.6 11,8.6 M 11,4 C 4.9,4 0,8.9 0,15 0,21.1 4.9,26 11,26 17.1,26 22,21.1 22,15 22,8.9 17.1,4 11,4 l 0,0 z"
     class="st4" /><g
     transform="translate(0,4)"
     style="display:none"
     id="g15"
     class="st0"><g
       style="display:inline"
       id="g17"
       class="st5"><path
         style="clip-rule:evenodd;fill:#dd2f4d;fill-rule:evenodd"
         id="path19"
         d="M 11,15.1 C 8.7,12.7 0,4.1 0,4.1 l 0,16.2 22,0 0,-16.2 c 0,0 -8.5,8.5 -11,11 z M 21.6,2 0.2,2 11,12.6 21.6,2 Z"
         class="st6" /></g></g><g
     transform="translate(2,2)"
     id="g21"><g
       id="g23"><path
         style="clip-rule:evenodd;fill:#1992d4;fill-rule:evenodd"
         id="path25"
         d="M 11,0 C 4.9,0 0,4.9 0,11 0,17.1 4.9,22 11,22 17.1,22 22,17.1 22,11 22,4.9 17.1,0 11,0 Z m 0,17.4 C 7.5,17.4 4.6,14.5 4.6,11 4.6,7.5 7.5,4.6 11,4.6 c 3.5,0 6.4,2.9 6.4,6.4 0,3.5 -2.9,6.4 -6.4,6.4 z"
         class="st7" /></g></g></svg>