<svg xmlns="http://www.w3.org/2000/svg" viewBox="0 0 24 24"><defs><style>.cls-1{fill:none;}.cls-2{fill:#fff;}</style></defs><title>reaction_hd</title><g id="レイヤー_2" data-name="レイヤー 2"><g id="アイコン"><rect class="cls-1" width="24" height="24"/><path class="cls-2" d="M12,.05A11.94,11.94,0,1,0,23.91,12,11.94,11.94,0,0,0,12,.05ZM6.84,8.11a2,2,0,1,1-2,2A2,2,0,0,1,6.84,8.11Zm11.75,7.6c-.77,2.36-4,4-6.61,4s-5.79-1.51-6.61-4A.85.85,0,0,1,7,15.18C7.44,16.59,9.59,18,12,18c2,0,4.5-1.31,5-2.84a.85.85,0,1,1,1.61.53Zm-1.48-3.65a2,2,0,1,1,2-2A2,2,0,0,1,17.11,12.06Z"/></g></g></svg>