<svg xmlns="http://www.w3.org/2000/svg" viewBox="0 0 24 24"><defs><style>.cls-1{fill:none;}.cls-2{fill:#fff;}</style></defs><title>space_hd</title><g id="レイヤー_2" data-name="レイヤー 2"><g id="アイコン"><rect class="cls-1" width="24" height="24"/><path class="cls-2" d="M12,.09A11.94,11.94,0,1,0,23.91,12,11.94,11.94,0,0,0,12,.09ZM6,11.92a2,2,0,0,1-2-2V6A2,2,0,0,1,6,4h7a2,2,0,0,1,2,2V9.93a2,2,0,0,1-2,2H11.35l-3.1,3.83V11.92Zm9,9.14a1.14,1.14,0,0,1-1.48.08l-3.22-2.58a1,1,0,0,1-.16-1.39l.63-.78a1,1,0,0,1,1.39-.16l1.14.92a1.13,1.13,0,0,0,1.47-.09l3.63-3.62a1,1,0,0,1,1.4,0l.7.71a1,1,0,0,1,0,1.4Z"/></g></g></svg>