<svg xmlns="http://www.w3.org/2000/svg" viewBox="0 0 32 32"><defs><style>.cls-1{fill:#717272;}.cls-2{fill:none;}.cls-3{fill:#fff;}</style></defs><title>アセット 29</title><g id="レイヤー_2" data-name="レイヤー 2"><g id="レイヤー_1-2" data-name="レイヤー 1"><rect class="cls-1" width="32" height="32"/><circle class="cls-2" cx="16" cy="16" r="16"/><path class="cls-3" d="M15.94,7.29c2.16,0,4.13,2.09,4.09,5.05s-1.23,3.51-1.91,4.75c-.25.47-.32,1.93.16,2.22,2.21,1.34,4.37,2.35,6.21,3.43a2.37,2.37,0,0,1,.93,2.15H6.47a2.37,2.37,0,0,1,.93-2.15c1.84-1.07,4-2.09,6.21-3.43.48-.29.41-1.75.16-2.22-.67-1.25-1.87-1.83-1.91-4.75s1.93-5.05,4.09-5.05"/></g></g></svg>