<svg xmlns="http://www.w3.org/2000/svg" viewBox="0 0 32 32"><defs><style>.cls-1{fill:none;}.cls-2{fill:#2cbf91;}.cls-3{fill:#fff;}</style></defs><title>address32_type16</title><g id="レイヤー_2" data-name="レイヤー 2"><g id="サイズ範囲用"><rect class="cls-1" width="32" height="32"/></g><g id="メイン"><rect class="cls-2" x="26" y="3" width="5" height="6" rx="1.33" ry="1.33"/><rect class="cls-2" x="26" y="11" width="5" height="6" rx="1.33" ry="1.33"/><rect class="cls-2" x="26" y="19" width="5" height="6" rx="1.33" ry="1.33"/><rect class="cls-2" x="1" width="28" height="32" rx="2" ry="2"/><path class="cls-3" d="M15.71,19.7a5.78,5.78,0,0,1-1.47,1.21,3.3,3.3,0,0,1-1.62.46,3.25,3.25,0,0,1-1.74-.53,3.73,3.73,0,0,1-1.37-1.61A5.26,5.26,0,0,1,9,16.85a7,7,0,0,1,.82-3.21,6.14,6.14,0,0,1,2-2.41,4.33,4.33,0,0,1,2.36-.8,3.32,3.32,0,0,1,1.67.45,4.41,4.41,0,0,1,1.37,1.54L17.58,11h1.8l-1.44,6.61c-.21.94-.31,1.39-.31,1.49a.55.55,0,0,0,.21.44.68.68,0,0,0,.5.17,2.7,2.7,0,0,0,1.4-.62,5.67,5.67,0,0,0,1.82-2.16,6.23,6.23,0,0,0,.67-2.8A6,6,0,0,0,18.8,8.65,8.06,8.06,0,0,0,15,7.77a8.63,8.63,0,0,0-4.3,1.1,7.52,7.52,0,0,0-3,3.17,9.34,9.34,0,0,0-1.08,4.41A8.06,8.06,0,0,0,7.71,20.7a6.43,6.43,0,0,0,3.1,2.63,11.62,11.62,0,0,0,4.49.85,9.86,9.86,0,0,0,4.42-1A5.84,5.84,0,0,0,22.38,21h1.83a5,5,0,0,1-1.76,2.22,9.27,9.27,0,0,1-3,1.77,11.84,11.84,0,0,1-4.15.66,14.2,14.2,0,0,1-4.12-.56A8.82,8.82,0,0,1,8,23.36a7.62,7.62,0,0,1-2-2.65,10,10,0,0,1-.85-4.1,11.22,11.22,0,0,1,1-4.68A9.39,9.39,0,0,1,9.64,7.75,10,10,0,0,1,15.12,6.3a9.7,9.7,0,0,1,4.49,1,7.53,7.53,0,0,1,3.13,3,7.62,7.62,0,0,1,1,3.79,7.5,7.5,0,0,1-2.06,5.18,5.35,5.35,0,0,1-4,2,2.53,2.53,0,0,1-1.12-.22,1.32,1.32,0,0,1-.63-.6A2.56,2.56,0,0,1,15.71,19.7ZM10.84,17a3.17,3.17,0,0,0,.66,2.14,1.92,1.92,0,0,0,1.5.77,2.54,2.54,0,0,0,1.18-.34,4.34,4.34,0,0,0,1.19-1,5.23,5.23,0,0,0,.93-1.69,6.12,6.12,0,0,0,.37-2.05A3.08,3.08,0,0,0,16,12.68a2.16,2.16,0,0,0-1.66-.75,2.46,2.46,0,0,0-1.21.32A3.75,3.75,0,0,0,12,13.31a5.89,5.89,0,0,0-.86,1.76A6.57,6.57,0,0,0,10.84,17Z"/></g></g></svg>