<svg xmlns="http://www.w3.org/2000/svg" viewBox="0 0 32 32"><defs><style>.cls-1{fill:none;}.cls-2{fill:#2cbf91;}.cls-3{fill:#fff;}.cls-4{fill:#d3d3d3;}</style></defs><title>link32_type16</title><g id="レイヤー_2" data-name="レイヤー 2"><g id="サイズ範囲用"><rect class="cls-1" width="32" height="32"/></g><g id="メイン"><path class="cls-2" d="M28.87,14.3A14.3,14.3,0,1,1,14.57,0,14.3,14.3,0,0,1,28.87,14.3Z"/><path class="cls-3" d="M26.12,14.3A11.55,11.55,0,1,1,14.57,2.75,11.55,11.55,0,0,1,26.12,14.3Z"/><rect class="cls-2" x="13" y="2" width="2" height="25"/><path class="cls-2" d="M13.54,28.41C8.73,23.86,6.39,19,6.58,14,6.89,6,13.46.58,13.74.35l1.39,1.71c-.07,0-6.09,5-6.35,12-.16,4.37,2,8.65,6.27,12.74Z"/><path class="cls-2" d="M15.58,28.41l-1.52-1.6c4.34-4.09,6.45-8.38,6.28-12.76-.27-7-6.29-11.94-6.35-12L15.38.35C15.65.58,22.23,6,22.54,14,22.73,19,20.39,23.86,15.58,28.41Z"/><rect class="cls-2" x="3" y="7" width="23" height="2"/><rect class="cls-2" x="3" y="13" width="24" height="2"/><rect class="cls-2" x="3" y="20" width="22" height="2"/><polygon class="cls-4" points="13.99 25.85 13.99 25.85 13.99 25.85 13.99 25.85"/><path class="cls-2" d="M26.25,22.89a3.35,3.35,0,0,1-4.72,0l-3.48-3.49a3.34,3.34,0,0,1,0-4.72l4.52-4.52a3.34,3.34,0,0,1,4.72,0l3.49,3.48a3.36,3.36,0,0,1,0,4.72Z"/><rect class="cls-3" x="19.46" y="12.57" width="9.73" height="8.18" rx="1.17" ry="1.17" transform="translate(-4.66 22.08) rotate(-45)"/><rect class="cls-2" x="21.39" y="14.26" width="5.98" height="4.53" rx="0.67" ry="0.67" transform="translate(-4.54 22.09) rotate(-45.01)"/><rect class="cls-2" x="9.62" y="18.87" width="13.07" height="11.6" rx="3.34" ry="3.34" transform="translate(-12.71 18.65) rotate(-45)"/><rect class="cls-3" x="11.21" y="20.7" width="9.73" height="8.18" rx="1.17" ry="1.17" transform="translate(-12.83 18.63) rotate(-45.01)"/><rect class="cls-2" x="13.22" y="22.39" width="5.98" height="4.53" rx="0.67" ry="0.67" transform="translate(-12.69 18.68) rotate(-45)"/><rect class="cls-2" x="15.23" y="18.39" width="9.95" height="4.54" rx="0.67" ry="0.67" transform="translate(-8.69 20.35) rotate(-45.03)"/><rect class="cls-3" x="16.56" y="19.72" width="7.36" height="1.98" rx="0.33" ry="0.33" transform="translate(-8.72 20.36) rotate(-44.97)"/></g></g></svg>