<svg xmlns="http://www.w3.org/2000/svg" viewBox="0 0 32 32.08"><defs><style>.cls-1{fill:none;}.cls-2{fill:#2cbf91;}</style></defs><title>msg32_type16</title><g id="レイヤー_2" data-name="レイヤー 2"><g id="サイズ範囲用"><rect class="cls-1" width="32" height="32"/></g><g id="メイン"><path class="cls-2" d="M25,11v6.42C25,19.34,22,21,20.24,21h-3l-4.45,4.62c.51,1.54,1.26,1.38,3,1.38h3.69l5.64,4.88c.47.4.88.18.88-.44V26.91l.09.09H28a4.05,4.05,0,0,0,4-4V14.7a3.83,3.83,0,0,0-3.82-3.86"/><path class="cls-2" d="M19.27,0H3.85A3.86,3.86,0,0,0,0,3.86V15.42A3.64,3.64,0,0,0,3.85,19H8v7.59c0,.62.24.66.71.25L15.8,19h3.47A3.53,3.53,0,0,0,23,15.42V3.86A3.76,3.76,0,0,0,19.27,0Z"/></g></g></svg>