<svg xmlns="http://www.w3.org/2000/svg" viewBox="0 0 32 32"><defs><style>.cls-1{fill:none;}.cls-2{fill:#9e7e69;}.cls-3{fill:#fff;}</style></defs><title>mail32_type17</title><g id="レイヤー_2" data-name="レイヤー 2"><g id="サイズ範囲用"><rect class="cls-1" width="32" height="32"/></g><g id="メイン"><path class="cls-2" d="M30.48,7h0l-6.43,5.35-6.42,5.43a2.45,2.45,0,0,1-3,0L8.29,12.21,2,6.68H2L0,5.38V26a2,2,0,0,0,2,2H30a2,2,0,0,0,2-2V5.38Z"/><path class="cls-2" d="M30.44,4H1.55c3,2.63,13.51,11.32,14.56,12.25C17.17,15.32,27.46,6.63,30.44,4Z"/><path class="cls-3" d="M32,5.38V4H30.44c-3,2.63-13.27,11.32-14.33,12.25C15.06,15.32,4.54,6.63,1.55,4H0V5.38L16.11,19Z"/></g></g></svg>