<svg xmlns="http://www.w3.org/2000/svg" viewBox="0 0 32 32"><defs><style>.cls-1{fill:none;}.cls-2{fill:#9e7e69;}.cls-3{fill:#fff;}</style></defs><title>telmemo32_type17</title><g id="レイヤー_2" data-name="レイヤー 2"><g id="サイズ範囲用"><rect class="cls-1" width="32" height="32"/></g><g id="メイン"><rect class="cls-2" x="2" width="28" height="32" rx="2" ry="2"/><path class="cls-3" d="M26.64,8.65l-5,2.9-1.53-.68A1.82,1.82,0,0,0,18.62,9.4c-1.43-.32-3.64.63-5.85,3s-3.21,5.88-.48,6.43l.7,1.43-2.86,5.06-1.31-.56S6.67,24,6.67,20.05c0-3.72,3.66-8.65,5-10s9.62-7.46,15-3.24C26.67,6.8,26.13,7.38,26.64,8.65Z"/><polygon class="cls-3" points="21 23 21 32 30 23 21 23"/></g></g></svg>