<svg xmlns="http://www.w3.org/2000/svg" viewBox="0 0 32 32"><defs><style>.cls-1{fill:none;}.cls-2{fill:#d6bb1d;}</style></defs><title>star_dark32</title><g id="レイヤー_2" data-name="レイヤー 2"><g id="アイコン"><rect class="cls-1" width="32" height="32"/><path class="cls-2" d="M15,1.33c.43-1,1.14-1,1.57,0L19.27,7.8A3.26,3.26,0,0,0,22,9.64h7.51c1.1,0,1.44.7.75,1.56l-5.13,6.38a4.6,4.6,0,0,0-.78,3.5l2.12,8.63c.26,1.07-.32,1.52-1.29,1L17.53,26.6a4.17,4.17,0,0,0-3.52,0l-7.9,4.22c-1,.52-1.55.07-1.28-1l2.08-8.44A4.46,4.46,0,0,0,6.1,17.9L1,11.8c-.7-.84-.38-1.55.72-1.56l7.53-.11A3.33,3.33,0,0,0,12,8.26Z"/></g></g></svg>