<svg xmlns="http://www.w3.org/2000/svg" viewBox="0 0 32 32"><defs><style>.cls-1{fill:none;}.cls-2{fill:#e66154;}.cls-3{fill:#51a1db;}.cls-4{fill:#f5d200;}.cls-5{fill:#737373;}.cls-6{fill:#fff;}</style></defs><title>address32_type18</title><g id="レイヤー_2" data-name="レイヤー 2"><g id="サイズ範囲用"><rect class="cls-1" width="32" height="32"/></g><g id="メイン"><rect class="cls-2" x="26" y="3" width="5" height="6" rx="1.33" ry="1.33"/><rect class="cls-3" x="26" y="11" width="5" height="6" rx="1.33" ry="1.33"/><rect class="cls-4" x="26" y="19" width="5" height="6" rx="1.33" ry="1.33"/><rect class="cls-5" x="1" width="28" height="32" rx="2" ry="2"/><path class="cls-6" d="M15.71,19.7a5.6,5.6,0,0,1-1.46,1.21,3.14,3.14,0,0,1-3.37-.07,3.76,3.76,0,0,1-1.37-1.61A5.39,5.39,0,0,1,9,16.85a7,7,0,0,1,.82-3.21,6.15,6.15,0,0,1,2-2.41,4.29,4.29,0,0,1,2.37-.8,3.3,3.3,0,0,1,1.67.46,4.42,4.42,0,0,1,1.37,1.53L17.58,11h1.8l-1.45,6.61c-.2.94-.3,1.39-.3,1.49a.55.55,0,0,0,.21.43.68.68,0,0,0,.5.18,2.71,2.71,0,0,0,1.4-.62,5.67,5.67,0,0,0,1.82-2.17,6.24,6.24,0,0,0,.67-2.8A6,6,0,0,0,18.8,8.65,8.13,8.13,0,0,0,15,7.77a8.6,8.6,0,0,0-4.3,1.1,7.55,7.55,0,0,0-3,3.16,9.41,9.41,0,0,0-1.07,4.41A8.08,8.08,0,0,0,7.71,20.7a6.4,6.4,0,0,0,3.1,2.63,11.52,11.52,0,0,0,4.49.85,9.83,9.83,0,0,0,4.42-1A5.88,5.88,0,0,0,22.38,21h1.82a5,5,0,0,1-1.76,2.22,9.44,9.44,0,0,1-3,1.77,11.92,11.92,0,0,1-4.15.66,14.18,14.18,0,0,1-4.12-.56A8.69,8.69,0,0,1,8,23.36a7.61,7.61,0,0,1-2-2.65,10,10,0,0,1-.85-4.11,11.22,11.22,0,0,1,1-4.68A9.36,9.36,0,0,1,9.64,7.75,9.93,9.93,0,0,1,15.12,6.3a9.66,9.66,0,0,1,4.48,1,7.49,7.49,0,0,1,3.14,3,7.61,7.61,0,0,1,1,3.79,7.49,7.49,0,0,1-2.06,5.19,5.36,5.36,0,0,1-4,2,2.55,2.55,0,0,1-1.12-.21,1.36,1.36,0,0,1-.63-.6A2.65,2.65,0,0,1,15.71,19.7ZM10.84,17a3.2,3.2,0,0,0,.65,2.14,1.94,1.94,0,0,0,1.5.76,2.5,2.5,0,0,0,1.19-.34,4.24,4.24,0,0,0,1.19-1,5.27,5.27,0,0,0,.93-1.69,6.11,6.11,0,0,0,.36-2A3.06,3.06,0,0,0,16,12.68a2.14,2.14,0,0,0-1.65-.75,2.4,2.4,0,0,0-1.21.33A3.76,3.76,0,0,0,12,13.31a5.89,5.89,0,0,0-.86,1.76A6.5,6.5,0,0,0,10.84,17Z"/></g></g></svg>