<svg xmlns="http://www.w3.org/2000/svg" viewBox="0 0 32 32"><defs><style>.cls-1{fill:none;}.cls-2{fill:#b8b8b8;}.cls-3{fill:#737373;}</style></defs><title>cbsearch32_type18</title><g id="レイヤー_2" data-name="レイヤー 2"><g id="サイズ範囲用"><rect class="cls-1" width="32" height="32"/></g><g id="メイン"><rect class="cls-2" x="4" y="2" width="6" height="6"/><rect class="cls-3" x="2" y="8" width="10" height="19" rx="2" ry="2"/><rect class="cls-3" x="12" y="12" width="8" height="9"/><path class="cls-3" d="M14,30a2,2,0,0,1-2,2H2a2,2,0,0,1-2-2H0a2,2,0,0,1,2-2H12a2,2,0,0,1,2,2Z"/><rect class="cls-2" x="22" y="2" width="6" height="6"/><rect class="cls-3" x="20" y="8" width="10" height="19" rx="2" ry="2"/><path class="cls-3" d="M32,30a2,2,0,0,1-2,2H20a2,2,0,0,1-2-2h0a2,2,0,0,1,2-2H30a2,2,0,0,1,2,2Z"/><path class="cls-3" d="M11,1.5C11,2.33,10.1,3,9,3H5C3.9,3,3,2.33,3,1.5S3.9,0,5,0H9C10.1,0,11,.68,11,1.5Z"/><path class="cls-3" d="M29,1.5c0,.83-.9,1.5-2,1.5H23c-1.1,0-2-.67-2-1.5S21.9,0,23,0h4C28.1,0,29,.68,29,1.5Z"/></g></g></svg>