<svg xmlns="http://www.w3.org/2000/svg" viewBox="0 0 32 32"><defs><style>.cls-1{fill:none;}.cls-2{fill:#51a1db;}.cls-3{fill:#fff;}.cls-4{fill:#d3d3d3;}.cls-5{fill:#737373;}</style></defs><title>link32_type18</title><g id="レイヤー_2" data-name="レイヤー 2"><g id="サイズ範囲用"><rect class="cls-1" width="32" height="32"/></g><g id="メイン"><circle class="cls-2" cx="14.39" cy="14.34" r="14.3"/><circle class="cls-3" cx="14.39" cy="14.34" r="11.55"/><rect class="cls-2" x="12.82" y="2.5" width="2" height="25"/><path class="cls-2" d="M13.36,28.45C8.55,23.9,6.2,19,6.4,14,6.71,6,13.28.62,13.56.39L14.94,2.1c-.06,0-6.09,5-6.35,12-.16,4.37,1.95,8.65,6.27,12.74Z"/><path class="cls-2" d="M15.39,28.45l-1.51-1.6c4.33-4.09,6.44-8.38,6.27-12.76-.27-7-6.29-11.94-6.34-12L15.19.39C15.47.62,22,6,22.36,14,22.55,19,20.2,23.9,15.39,28.45Z"/><rect class="cls-2" x="2.82" y="7.5" width="23" height="2"/><rect class="cls-2" x="2.82" y="13.5" width="24" height="2"/><rect class="cls-2" x="2.82" y="20.5" width="22" height="2"/><polygon class="cls-4" points="13.81 25.9 13.81 25.9 13.81 25.89 13.81 25.9"/><path class="cls-5" d="M26.44,22.83a3.35,3.35,0,0,1-4.72,0l-3.48-3.48a3.34,3.34,0,0,1,0-4.72l4.52-4.52a3.35,3.35,0,0,1,4.72,0L31,13.59a3.35,3.35,0,0,1,0,4.72Z"/><path class="cls-3" d="M24.79,22.1a1.17,1.17,0,0,1-1.65,0L19,18a1.17,1.17,0,0,1,0-1.65l5.22-5.22a1.17,1.17,0,0,1,1.65,0L30,15.23a1.17,1.17,0,0,1,0,1.65Z"/><rect class="cls-5" x="21.58" y="14.2" width="5.98" height="4.53" rx="0.67" ry="0.67" transform="translate(-4.44 22.21) rotate(-45.02)"/><rect class="cls-5" x="9.81" y="18.8" width="13.07" height="11.6" rx="3.34" ry="3.34" transform="translate(-12.61 18.76) rotate(-45)"/><path class="cls-3" d="M16.54,30.24a1.17,1.17,0,0,1-1.65,0L10.75,26.1a1.17,1.17,0,0,1,0-1.65L16,19.23a1.17,1.17,0,0,1,1.65,0l4.13,4.13a1.17,1.17,0,0,1,0,1.65Z"/><rect class="cls-5" x="13.41" y="22.33" width="5.98" height="4.53" rx="0.67" ry="0.67" transform="translate(-12.59 18.8) rotate(-45)"/><path class="cls-5" d="M19,25.25a.67.67,0,0,1-.94,0L15.74,23a.67.67,0,0,1,0-.94l6.1-6.1a.67.67,0,0,1,.95,0L25,18.21a.67.67,0,0,1,0,.94Z"/><path class="cls-3" d="M18.76,23.72a.34.34,0,0,1-.47,0l-.93-.93a.34.34,0,0,1,0-.47l4.73-4.73a.34.34,0,0,1,.47,0l.93.93a.34.34,0,0,1,0,.47Z"/></g></g></svg>