<svg xmlns="http://www.w3.org/2000/svg" viewBox="0 0 32 32"><defs><style>.cls-1{fill:none;}.cls-2{fill:#b8b8b8;}.cls-3{fill:#fff;}.cls-4{fill:#737373;}</style></defs><title>memo32_type18</title><g id="レイヤー_2" data-name="レイヤー 2"><g id="サイズ範囲用"><rect class="cls-1" width="32" height="32"/></g><g id="メイン"><rect class="cls-2" x="2" y="2" width="28" height="30" rx="2" ry="2"/><polygon class="cls-3" points="21 23 21 32 30 23 21 23"/><path class="cls-4" d="M6.67,2c0,1.1-.45,2-1,2s-1-.9-1-2h0c0-1.1.45-2,1-2s1,.9,1,2Z"/><path class="cls-4" d="M10,2c0,1.1-.45,2-1,2S8,3.1,8,2H8c0-1.1.45-2,1-2s1,.9,1,2Z"/><path class="cls-4" d="M13.33,2c0,1.1-.45,2-1,2s-1-.9-1-2h0c0-1.1.45-2,1-2s1,.9,1,2Z"/><path class="cls-4" d="M16.67,2c0,1.1-.45,2-1,2s-1-.9-1-2h0c0-1.1.45-2,1-2s1,.9,1,2Z"/><path class="cls-4" d="M20,2c0,1.1-.45,2-1,2s-1-.9-1-2h0c0-1.1.45-2,1-2s1,.9,1,2Z"/><path class="cls-4" d="M23.33,2c0,1.1-.45,2-1,2s-1-.9-1-2h0c0-1.1.45-2,1-2s1,.9,1,2Z"/><path class="cls-4" d="M26.67,2c0,1.1-.45,2-1,2s-1-.9-1-2h0c0-1.1.45-2,1-2s1,.9,1,2Z"/><rect class="cls-3" x="5" y="7" width="22" height="2"/><rect class="cls-3" x="5" y="11" width="22" height="2"/><rect class="cls-3" x="5" y="15" width="22" height="2"/><rect class="cls-3" x="5" y="19" width="22" height="2"/><rect class="cls-3" x="5" y="23" width="22" height="2"/><rect class="cls-3" x="5" y="27" width="16" height="2"/></g></g></svg>