<svg xmlns="http://www.w3.org/2000/svg" viewBox="0 0 32 32"><defs><style>.cls-1{fill:none;}.cls-2{fill:#51a1db;}.cls-3{fill:#f5d200;}</style></defs><title>msg32_type18</title><g id="レイヤー_2" data-name="レイヤー 2"><g id="サイズ範囲用"><rect class="cls-1" width="32" height="32"/></g><g id="メイン"><path class="cls-2" d="M25,11v5.92C25,18.84,22,21,20.24,21h-3l-4.45,4.62c.51,1.54,1.26,1.38,3,1.38h3.69l5.64,4.63c.47.4.88-.07.88-.69V26.41l.09.59H28c2.13,0,4-2.33,4-4.45V14.2a3.62,3.62,0,0,0-3.82-3.61"/><path class="cls-3" d="M19.27,0H3.85C1.73,0,0,1.23,0,3.36V14.92A4.07,4.07,0,0,0,3.85,19H8v7.09c0,.62.24.91.71.51L15.8,19h3.47A4,4,0,0,0,23,14.92V3.36C23,1.23,21.39,0,19.27,0Z"/></g></g></svg>