<svg xmlns="http://www.w3.org/2000/svg" xmlns:xlink="http://www.w3.org/1999/xlink" viewBox="0 0 32 32"><defs><style>.cls-1{fill:none;}.cls-2{fill:url(#linear-gradient);}.cls-3{fill:#fff;}.cls-4{fill:#737373;}</style><linearGradient id="linear-gradient" x1="16" y1="0.25" x2="16" y2="31.88" gradientUnits="userSpaceOnUse"><stop offset="0" stop-color="#b3b3b3"/><stop offset="1" stop-color="#a6a6a6"/></linearGradient></defs><title>report32_type18</title><g id="レイヤー_2" data-name="レイヤー 2"><g id="サイズ範囲用"><rect class="cls-1" width="32" height="32"/></g><g id="メイン"><rect class="cls-2" x="2" width="28" height="32" rx="2" ry="2"/><polygon class="cls-3" points="23 7 30 7 23 0 23 7"/><rect class="cls-3" x="5" y="7" width="15" height="2"/><rect class="cls-3" x="5" y="3" width="15" height="2"/><rect class="cls-3" x="5" y="11" width="22" height="2"/><rect class="cls-3" x="5" y="15" width="10" height="2"/><rect class="cls-3" x="5" y="19" width="5" height="2"/><path class="cls-4" d="M19.27,19.2,23,26H15.49l3.78-6.8m0-2.06L13.79,27h11l-5.47-9.86Z"/><circle class="cls-4" cx="19.27" cy="17.41" r="2.74"/><circle class="cls-4" cx="13.79" cy="27.26" r="2.74"/><circle class="cls-4" cx="25.24" cy="27.26" r="2.74"/></g></g></svg>