<svg xmlns="http://www.w3.org/2000/svg" viewBox="0 0 32 32"><defs><style>.cls-1{fill:none;}.cls-2{fill:#51a1db;}.cls-3{fill:#fff;}</style></defs><title>space32</title><g id="レイヤー_2" data-name="レイヤー 2"><g id="サイズ範囲用"><rect class="cls-1" width="32" height="32"/></g><g id="メイン"><circle class="cls-2" cx="16" cy="16" r="16"/><path class="cls-3" d="M19.86,27.85a1.15,1.15,0,0,1-1.49.08l-4.84-3.87a1,1,0,0,1-.16-1.4l1.25-1.57A1,1,0,0,1,16,20.94l2,1.63a1.15,1.15,0,0,0,1.49-.08l5.32-5.32a1,1,0,0,1,1.41,0l1.42,1.41a1,1,0,0,1,0,1.42Z"/><rect class="cls-3" x="6" y="5.5" width="14" height="10" rx="2" ry="2"/><polygon class="cls-3" points="11 14.96 11 20.5 16 14.96 11 14.96"/></g></g></svg>