<svg xmlns="http://www.w3.org/2000/svg" viewBox="0 0 32 32"><defs><style>.cls-1{fill:none;}.cls-2{fill:#f5d200;}</style></defs><title>star32_type18</title><g id="レイヤー_2" data-name="レイヤー 2"><g id="サイズ範囲用"><rect class="cls-1" width="32" height="32"/></g><g id="メイン"><path class="cls-2" d="M15,1.33c.43-1,1.14-1,1.56,0L19.27,7.8A3.27,3.27,0,0,0,22,9.64h7.51c1.1,0,1.44.7.75,1.56l-5.13,6.38a4.58,4.58,0,0,0-.78,3.5l2.12,8.63c.26,1.07-.32,1.52-1.29,1L17.53,26.6a4.19,4.19,0,0,0-3.53,0L6.11,30.82c-1,.52-1.55.07-1.29-1l2.08-8.45A4.44,4.44,0,0,0,6.1,17.9L1,11.8c-.71-.84-.38-1.54.71-1.56l7.54-.11A3.36,3.36,0,0,0,12,8.26Z"/></g></g></svg>