<svg xmlns="http://www.w3.org/2000/svg" viewBox="0 0 32 32"><defs><style>.cls-1{fill:none;}.cls-2{fill:#51a1db;}.cls-3{fill:#fff;}</style></defs><title>telmemo32_type18</title><g id="レイヤー_2" data-name="レイヤー 2"><g id="サイズ範囲用"><rect class="cls-1" width="32" height="32"/></g><g id="メイン"><rect class="cls-2" x="2" width="28" height="32" rx="2" ry="2"/><path class="cls-3" d="M26.64,8.19l-5,2.9-1.53-.68a1.81,1.81,0,0,0-1.53-1.47c-1.43-.33-3.64.63-5.85,3s-3.21,5.88-.48,6.44l.7,1.43-2.87,5.06-1.31-.57s-2.15-.78-2.15-4.71c0-3.72,3.67-8.65,5-10s9.62-7.46,15-3.23C26.67,6.34,26.13,6.92,26.64,8.19Z"/><polygon class="cls-3" points="21 23 21 31.54 30 23 21 23"/></g></g></svg>