<svg xmlns="http://www.w3.org/2000/svg" viewBox="0 0 32 32"><defs><style>.cls-1{fill:none;}.cls-2{fill:#ec7771;}.cls-3{fill:#fff;}</style></defs><title>report32_type15</title><g id="レイヤー_2" data-name="レイヤー 2"><g id="サイズ範囲用"><rect class="cls-1" width="32" height="32"/></g><g id="メイン"><rect class="cls-2" x="2" width="28" height="32" rx="2" ry="2"/><polygon class="cls-3" points="23 7 30 7 23 0 23 7"/><rect class="cls-3" x="5" y="7" width="15" height="2"/><rect class="cls-3" x="5" y="3" width="15" height="2"/><rect class="cls-3" x="5" y="11" width="22" height="2"/><rect class="cls-3" x="5" y="15" width="10" height="2"/><rect class="cls-3" x="5" y="19" width="5" height="2"/><path class="cls-3" d="M19.27,19.2,23.05,26H15.49l3.78-6.8m0-2.06L13.79,27h11l-5.48-9.86Z"/><path class="cls-3" d="M22,17.41a2.74,2.74,0,1,1-2.74-2.74A2.74,2.74,0,0,1,22,17.41Z"/><circle class="cls-3" cx="13.79" cy="27.26" r="2.74"/><circle class="cls-3" cx="25.24" cy="27.26" r="2.74"/></g></g></svg>