<svg xmlns="http://www.w3.org/2000/svg" viewBox="0 0 32 32"><defs><style>.cls-1{fill:none;}.cls-2{fill:#ec7771;}.cls-3{fill:#fff;}</style></defs><title>rss32_type15</title><g id="レイヤー_2" data-name="レイヤー 2"><g id="サイズ範囲用"><rect class="cls-1" width="32" height="32"/></g><g id="メイン"><rect class="cls-2" x="2" y="2" width="28" height="28" rx="2" ry="2"/><path class="cls-3" d="M11.45,23.21a2.79,2.79,0,1,1-2.79-2.8A2.79,2.79,0,0,1,11.45,23.21Z"/><path class="cls-3" d="M9.24,6H7v4H9.24A12.59,12.59,0,0,1,22,22.79V25h4V22.79A16.79,16.79,0,0,0,9.24,6Z"/><path class="cls-3" d="M9.24,13H7v4H9.24A5.91,5.91,0,0,1,15,22.79V25h4V22.79A10.13,10.13,0,0,0,9.24,13Z"/></g></g></svg>