<svg xmlns="http://www.w3.org/2000/svg" viewBox="0 0 32 32"><defs><style>.cls-1{fill:none;}.cls-2{fill:#ec7771;}.cls-3{fill:#fff;}</style></defs><title>schedule32_type15</title><g id="レイヤー_2" data-name="レイヤー 2"><g id="サイズ範囲用"><rect class="cls-1" width="32" height="32"/></g><g id="メイン"><rect class="cls-2" y="3" width="32" height="29" rx="2.25" ry="2.25"/><path class="cls-3" d="M8,6.21A1.53,1.53,0,0,1,6.33,7.54,1.52,1.52,0,0,1,4.67,6.21,1.52,1.52,0,0,1,6.33,4.88,1.53,1.53,0,0,1,8,6.21Z"/><path class="cls-2" d="M5,4.21c0,1.1.58,2,1.5,2s1.5-.9,1.5-2V1.54A1.35,1.35,0,0,0,6.5,0,1.35,1.35,0,0,0,5,1.54Z"/><path class="cls-3" d="M27.33,6.21a1.52,1.52,0,0,1-1.66,1.33A1.53,1.53,0,0,1,24,6.21a1.53,1.53,0,0,1,1.67-1.33A1.52,1.52,0,0,1,27.33,6.21Z"/><path class="cls-2" d="M24,4.21c0,1.1.58,2,1.5,2s1.5-.9,1.5-2V1.54A1.35,1.35,0,0,0,25.5,0,1.35,1.35,0,0,0,24,1.54Z"/><rect class="cls-3" x="3" y="10" width="26" height="19" rx="2" ry="2"/><rect class="cls-2" x="7" y="14" width="4" height="4"/><rect class="cls-2" x="14" y="14" width="4" height="4"/><rect class="cls-2" x="21" y="14" width="4" height="4"/><rect class="cls-2" x="7" y="21" width="4" height="4"/><rect class="cls-2" x="14" y="21" width="4" height="4"/><rect class="cls-2" x="21" y="21" width="4" height="4"/></g></g></svg>