<svg xmlns="http://www.w3.org/2000/svg" viewBox="0 0 32 32"><defs><style>.cls-1{fill:none;}.cls-2{fill:#ec7771;}</style></defs><title>workflow32_type15</title><g id="レイヤー_2" data-name="レイヤー 2"><g id="サイズ範囲用"><rect class="cls-1" width="32" height="32"/></g><g id="メイン"><path class="cls-2" d="M21,0H11c-.55,0-1,.6-1,1.33V2.67C10,3.4,10.45,4,11,4s1,.6,1,1.33v5.34A1.34,1.34,0,0,0,13.33,12h5.34A1.34,1.34,0,0,0,20,10.67V5.33C20,4.6,20.45,4,21,4s1-.6,1-1.33V1.33C22,.6,21.55,0,21,0Z"/><rect class="cls-2" x="6" y="16" width="20" height="10" rx="2" ry="2"/><rect class="cls-2" x="6" y="24" width="5" height="8"/><rect class="cls-2" x="21" y="24" width="5" height="8"/><path class="cls-2" d="M28,31c0,.55-.6,1-1.33,1H5.33C4.6,32,4,31.55,4,31s.6-1,1.33-1H26.67C27.4,30,28,30.45,28,31Z"/><rect class="cls-2" x="14" y="12" width="4" height="6"/></g></g></svg>