<svg xmlns="http://www.w3.org/2000/svg" viewBox="0 0 32 32"><defs><style>.cls-1{fill:none;}.cls-2{fill:#696969;}.cls-3{fill:#fff;}</style></defs><title>facility32_type04</title><g id="レイヤー_2" data-name="レイヤー 2"><g id="サイズ範囲用"><rect class="cls-1" width="32" height="32"/></g><g id="メイン"><path class="cls-2" d="M28.15,0H4A2,2,0,0,0,2,2v9H9.38A1.67,1.67,0,0,1,11,12.4V18H28.15A1.81,1.81,0,0,0,30,16.08V2A1.89,1.89,0,0,0,28.15,0Z"/><rect class="cls-2" y="29" width="2" height="3"/><rect class="cls-2" x="7" y="24" width="2" height="8"/><rect class="cls-2" x="13" y="29" width="2" height="3"/><rect class="cls-3" x="6" y="3" width="8" height="2"/><rect class="cls-3" x="6" y="7" width="8" height="2"/><rect class="cls-3" x="16" y="3" width="10" height="9"/><rect class="cls-2" x="26" y="28" width="6" height="2"/><rect class="cls-2" x="28" y="16" width="2" height="12"/><rect class="cls-2" y="29" width="14" height="1"/><rect class="cls-2" y="13" width="9" height="11.13" rx="1.25" ry="1.25"/><rect class="cls-2" y="20.1" width="15" height="6.7" rx="1.25" ry="1.25"/></g></g></svg>