<svg xmlns="http://www.w3.org/2000/svg" viewBox="0 0 32 32"><defs><style>.cls-1{fill:none;}.cls-2{fill:#696969;}.cls-3{fill:#fff;}</style></defs><title>file32_type04</title><g id="レイヤー_2" data-name="レイヤー 2"><g id="サイズ範囲用"><rect class="cls-1" width="32" height="32"/></g><g id="メイン"><rect class="cls-2" x="22" y="4" width="10" height="28" rx="2" ry="2"/><rect class="cls-2" width="10" height="32" rx="2" ry="2"/><rect class="cls-2" x="11" width="10" height="32" rx="2" ry="2"/><path class="cls-3" d="M17.6,27.67a1.67,1.67,0,0,1-3.33,0,1.67,1.67,0,1,1,3.33,0Z"/><path class="cls-3" d="M6.67,27.67A1.67,1.67,0,1,1,5,26,1.66,1.66,0,0,1,6.67,27.67Z"/><path class="cls-3" d="M28.75,27.67A1.67,1.67,0,1,1,27.08,26,1.66,1.66,0,0,1,28.75,27.67Z"/><rect class="cls-3" x="2" y="7" width="6" height="16"/><rect class="cls-3" x="2" y="3" width="6" height="2"/><rect class="cls-3" x="13" y="7" width="6" height="16"/><rect class="cls-3" x="24" y="11" width="6" height="12"/><rect class="cls-3" x="13" y="3" width="6" height="2"/><rect class="cls-3" x="24" y="7" width="6" height="2"/></g></g></svg>