<svg xmlns="http://www.w3.org/2000/svg" viewBox="0 0 32 32"><defs><style>.cls-1{fill:none;}.cls-2{fill:#696969;}.cls-3{fill:#fff;}</style></defs><title>space32_type04</title><g id="レイヤー_2" data-name="レイヤー 2"><g id="サイズ範囲用"><rect class="cls-1" width="32" height="32"/></g><g id="メイン"><circle class="cls-2" cx="16" cy="16" r="16"/><path class="cls-3" d="M19.86,28.35a1.15,1.15,0,0,1-1.49.08l-4.84-3.87a1,1,0,0,1-.15-1.4l1.24-1.57A1,1,0,0,1,16,21.44l2,1.63A1.15,1.15,0,0,0,19.56,23l5.32-5.32a1,1,0,0,1,1.41,0l1.42,1.41a1,1,0,0,1,0,1.42Z"/><rect class="cls-3" x="6" y="6" width="14" height="10" rx="2" ry="2"/><polygon class="cls-3" points="11 15 11 21 16 15 11 15"/></g></g></svg>