<svg xmlns="http://www.w3.org/2000/svg" viewBox="0 0 32 32"><defs><style>.cls-1{fill:none;}.cls-2{fill:#696969;}</style></defs><title>star32_type04</title><g id="レイヤー_2" data-name="レイヤー 2"><g id="サイズ範囲用"><rect class="cls-1" width="32" height="32"/></g><g id="メイン"><path class="cls-2" d="M15.29,1.69c.44-1,1.14-1,1.57,0l2.72,6.47A3.26,3.26,0,0,0,22.35,10h7.52c1.09,0,1.43.7.74,1.56l-5.13,6.38a4.59,4.59,0,0,0-.78,3.5l2.12,8.63c.26,1.07-.32,1.52-1.29,1L17.85,27a4.26,4.26,0,0,0-3.53,0l-7.9,4.23c-1,.52-1.54.07-1.28-1l2.08-8.45a4.44,4.44,0,0,0-.81-3.47l-5.12-6.1C.58,11.32.9,10.61,2,10.6l7.54-.11a3.35,3.35,0,0,0,2.78-1.87Z"/></g></g></svg>