<svg xmlns="http://www.w3.org/2000/svg" viewBox="0 0 32 32"><defs><style>.cls-1{fill:none;}.cls-2{fill:#696969;}.cls-3{fill:#fff;}</style></defs><title>timecard32_type04</title><g id="レイヤー_2" data-name="レイヤー 2"><g id="サイズ範囲用"><rect class="cls-1" width="32" height="32"/></g><g id="メイン"><rect class="cls-2" x="8" width="16" height="12" rx="1" ry="1"/><rect class="cls-2" x="4" y="10" width="24" height="22" rx="2" ry="2"/><rect class="cls-3" x="8" y="13" width="16" height="11"/><rect class="cls-3" x="8" y="26" width="4" height="3"/><rect class="cls-3" x="14" y="26" width="4" height="3"/><rect class="cls-3" x="20" y="26" width="4" height="3"/><rect class="cls-3" x="10" y="2" width="5" height="2"/><rect class="cls-3" x="17" y="2" width="5" height="2"/><rect class="cls-3" x="10" y="5" width="5" height="2"/><rect class="cls-3" x="17" y="5" width="5" height="2"/><rect class="cls-3" x="10" y="8" width="5" height="2"/><rect class="cls-3" x="17" y="8" width="5" height="2"/><rect class="cls-3" x="10.67" y="19.33" width="1.33" height="2"/><rect class="cls-3" x="20" y="19.33" width="1.33" height="2"/></g></g></svg>