<svg xmlns="http://www.w3.org/2000/svg" viewBox="0 0 32 32"><defs><style>.cls-1{fill:none;}.cls-2{fill:#51a1db;}.cls-3{fill:#fff;}</style></defs><title>notify32_type06</title><g id="レイヤー_2" data-name="レイヤー 2"><g id="サイズ範囲用"><rect class="cls-1" width="32" height="32"/></g><g id="メイン"><path class="cls-2" d="M26.08,3.86A3.21,3.21,0,0,0,23.33,2H8.67A3.21,3.21,0,0,0,5.92,3.86l-5.18,13A12.4,12.4,0,0,0,0,20.67v6A2.32,2.32,0,0,0,2,29H30a2.32,2.32,0,0,0,2-2.33v-6a12.4,12.4,0,0,0-.74-3.86Z"/><polygon class="cls-3" points="28.71 19 3.33 19 8.33 5 23.67 5 28.71 19"/><rect class="cls-3" x="9" y="18" width="14" height="4"/></g></g></svg>